<svg width="40" height="40" viewBox="0 0 40 40" fill="none" xmlns="http://www.w3.org/2000/svg">
<circle cx="20" cy="20" r="20" fill="#37414A"/>
<path d="M11.6153 11.6153C11.7314 11.4989 11.8693 11.4065 12.0212 11.3435C12.1731 11.2805 12.3359 11.248 12.5003 11.248C12.6647 11.248 12.8275 11.2805 12.9794 11.3435C13.1312 11.4065 13.2692 11.4989 13.3853 11.6153L20.0003 18.2328L26.6153 11.6153C26.7315 11.4991 26.8695 11.4069 27.0213 11.344C27.1732 11.2811 27.3359 11.2487 27.5003 11.2487C27.6646 11.2487 27.8274 11.2811 27.9792 11.344C28.1311 11.4069 28.2691 11.4991 28.3853 11.6153C28.5015 11.7315 28.5937 11.8695 28.6566 12.0213C28.7195 12.1732 28.7519 12.3359 28.7519 12.5003C28.7519 12.6646 28.7195 12.8274 28.6566 12.9792C28.5937 13.1311 28.5015 13.2691 28.3853 13.3853L21.7678 20.0003L28.3853 26.6153C28.5015 26.7315 28.5937 26.8695 28.6566 27.0213C28.7195 27.1732 28.7519 27.3359 28.7519 27.5003C28.7519 27.6646 28.7195 27.8274 28.6566 27.9792C28.5937 28.1311 28.5015 28.2691 28.3853 28.3853C28.2691 28.5015 28.1311 28.5937 27.9792 28.6566C27.8274 28.7195 27.6646 28.7519 27.5003 28.7519C27.3359 28.7519 27.1732 28.7195 27.0213 28.6566C26.8695 28.5937 26.7315 28.5015 26.6153 28.3853L20.0003 21.7678L13.3853 28.3853C13.2691 28.5015 13.1311 28.5937 12.9792 28.6566C12.8274 28.7195 12.6646 28.7519 12.5003 28.7519C12.3359 28.7519 12.1732 28.7195 12.0213 28.6566C11.8695 28.5937 11.7315 28.5015 11.6153 28.3853C11.4991 28.2691 11.4069 28.1311 11.344 27.9792C11.2811 27.8274 11.2487 27.6646 11.2487 27.5003C11.2487 27.3359 11.2811 27.1732 11.344 27.0213C11.4069 26.8695 11.4991 26.7315 11.6153 26.6153L18.2328 20.0003L11.6153 13.3853C11.4989 13.2692 11.4065 13.1312 11.3435 12.9794C11.2805 12.8275 11.248 12.6647 11.248 12.5003C11.248 12.3359 11.2805 12.1731 11.3435 12.0212C11.4065 11.8693 11.4989 11.7314 11.6153 11.6153Z" fill="white"/>
</svg>
