<svg width="30" height="30" viewBox="0 0 30 30" fill="none" xmlns="http://www.w3.org/2000/svg">
<g clip-path="url(#clip0_1202_124)">
<path d="M23.7056 28.125C26.2106 28.125 28.125 25.9594 28.125 23.4375V9.375H1.875V23.4375C1.875 25.9594 3.78938 28.125 6.29438 28.125H23.7056ZM10.3125 13.125H19.6875C19.9361 13.125 20.1746 13.2238 20.3504 13.3996C20.5262 13.5754 20.625 13.8139 20.625 14.0625C20.625 14.3111 20.5262 14.5496 20.3504 14.7254C20.1746 14.9012 19.9361 15 19.6875 15H10.3125C10.0639 15 9.8254 14.9012 9.64959 14.7254C9.47377 14.5496 9.375 14.3111 9.375 14.0625C9.375 13.8139 9.47377 13.5754 9.64959 13.3996C9.8254 13.2238 10.0639 13.125 10.3125 13.125ZM1.5 1.875C1.10218 1.875 0.720644 2.03304 0.43934 2.31434C0.158035 2.59564 0 2.97718 0 3.375L0 5.625C0 6.02282 0.158035 6.40436 0.43934 6.68566C0.720644 6.96696 1.10218 7.125 1.5 7.125H28.5C28.8978 7.125 29.2794 6.96696 29.5607 6.68566C29.842 6.40436 30 6.02282 30 5.625V3.375C30 2.97718 29.842 2.59564 29.5607 2.31434C29.2794 2.03304 28.8978 1.875 28.5 1.875H1.5Z" fill="white"/>
</g>
<defs>
<clipPath id="clip0_1202_124">
<rect width="30" height="30" fill="white"/>
</clipPath>
</defs>
</svg>
