<svg width="30" height="30" viewBox="0 0 30 30" fill="none" xmlns="http://www.w3.org/2000/svg">
<g clip-path="url(#clip0_1292_311)">
<path d="M11.2539 10.3125C11.2539 11.0584 10.9576 11.7738 10.4301 12.3012C9.9027 12.8287 9.18733 13.125 8.44141 13.125C7.69548 13.125 6.98011 12.8287 6.45267 12.3012C5.92522 11.7738 5.62891 11.0584 5.62891 10.3125C5.62891 9.56658 5.92522 8.85121 6.45267 8.32376C6.98011 7.79632 7.69548 7.5 8.44141 7.5C9.18733 7.5 9.9027 7.79632 10.4301 8.32376C10.9576 8.85121 11.2539 9.56658 11.2539 10.3125Z" fill="#37414A"/>
<path d="M2.8125 3.75C2.06658 3.75 1.35121 4.04632 0.823762 4.57376C0.296316 5.10121 0 5.81658 0 6.5625L0 23.4375C0 24.1834 0.296316 24.8988 0.823762 25.4262C1.35121 25.9537 2.06658 26.25 2.8125 26.25H27.1875C27.9334 26.25 28.6488 25.9537 29.1762 25.4262C29.7037 24.8988 30 24.1834 30 23.4375V6.5625C30 5.81658 29.7037 5.10121 29.1762 4.57376C28.6488 4.04632 27.9334 3.75 27.1875 3.75H2.8125ZM27.1875 5.625C27.4361 5.625 27.6746 5.72377 27.8504 5.89959C28.0262 6.0754 28.125 6.31386 28.125 6.5625V17.8125L21.0469 14.1619C20.871 14.0738 20.672 14.0432 20.4778 14.0745C20.2837 14.1058 20.1043 14.1974 19.965 14.3363L13.0087 21.2925L8.02125 17.97C7.84117 17.8501 7.62518 17.7962 7.40988 17.8174C7.19459 17.8386 6.99325 17.9336 6.84 18.0863L1.87875 22.5V23.5125C1.87651 23.4876 1.87526 23.4625 1.875 23.4375V6.5625C1.875 6.31386 1.97377 6.0754 2.14959 5.89959C2.3254 5.72377 2.56386 5.625 2.8125 5.625H27.1875Z" fill="#37414A"/>
</g>
<defs>
<clipPath id="clip0_1292_311">
<rect width="30" height="30" fill="white"/>
</clipPath>
</defs>
</svg>
