<svg width="30" height="30" viewBox="0 0 30 30" fill="none" xmlns="http://www.w3.org/2000/svg">
<path d="M0.09375 6.66563C0.282784 5.83733 0.747479 5.09777 1.41173 4.56808C2.07598 4.03838 2.90041 3.74994 3.75 3.75H26.25C27.0996 3.74994 27.924 4.03838 28.5883 4.56808C29.2525 5.09777 29.7172 5.83733 29.9062 6.66563L15 15.7762L0.09375 6.66563ZM0 8.80688V22.1269L10.8806 15.4556L0 8.80688ZM12.6769 16.5562L0.358125 24.105C0.662219 24.7471 1.14248 25.2897 1.74298 25.6694C2.34348 26.0492 3.0395 26.2505 3.75 26.25H15.48C15.1613 25.3466 14.9989 24.3955 15 23.4375C14.9987 22.2058 15.2677 20.9888 15.788 19.8724C16.3083 18.756 17.0672 17.7674 18.0112 16.9762L17.3231 16.5544L15 17.9738L12.6769 16.5544V16.5562ZM30 8.80688V18.1331C29.2098 17.1537 28.2101 16.3638 27.0744 15.8216C25.9387 15.2794 24.696 14.9987 23.4375 15C22.1613 14.9984 20.9014 15.2869 19.7531 15.8438L19.1194 15.4556L30 8.80688Z" fill="white"/>
<path d="M30 23.4375C30 25.178 29.3086 26.8472 28.0779 28.0779C26.8472 29.3086 25.178 30 23.4375 30C21.697 30 20.0278 29.3086 18.7971 28.0779C17.5664 26.8472 16.875 25.178 16.875 23.4375C16.875 21.697 17.5664 20.0278 18.7971 18.7971C20.0278 17.5664 21.697 16.875 23.4375 16.875C25.178 16.875 26.8472 17.5664 28.0779 18.7971C29.3086 20.0278 30 21.697 30 23.4375ZM23.4375 19.6875C23.1889 19.6875 22.9504 19.7863 22.7746 19.9621C22.5988 20.1379 22.5 20.3764 22.5 20.625V22.5H20.625C20.3764 22.5 20.1379 22.5988 19.9621 22.7746C19.7863 22.9504 19.6875 23.1889 19.6875 23.4375C19.6875 23.6861 19.7863 23.9246 19.9621 24.1004C20.1379 24.2762 20.3764 24.375 20.625 24.375H22.5V26.25C22.5 26.4986 22.5988 26.7371 22.7746 26.9129C22.9504 27.0887 23.1889 27.1875 23.4375 27.1875C23.6861 27.1875 23.9246 27.0887 24.1004 26.9129C24.2762 26.7371 24.375 26.4986 24.375 26.25V24.375H26.25C26.4986 24.375 26.7371 24.2762 26.9129 24.1004C27.0887 23.9246 27.1875 23.6861 27.1875 23.4375C27.1875 23.1889 27.0887 22.9504 26.9129 22.7746C26.7371 22.5988 26.4986 22.5 26.25 22.5H24.375V20.625C24.375 20.3764 24.2762 20.1379 24.1004 19.9621C23.9246 19.7863 23.6861 19.6875 23.4375 19.6875Z" fill="white"/>
</svg>
