<svg width="30" height="30" viewBox="0 0 30 30" fill="none" xmlns="http://www.w3.org/2000/svg">
<path fill-rule="evenodd" clip-rule="evenodd" d="M15 6.17438L26.25 17.4244V25.3125C26.25 26.0584 25.9537 26.7738 25.4262 27.3012C24.8988 27.8287 24.1834 28.125 23.4375 28.125H6.5625C5.81658 28.125 5.10121 27.8287 4.57376 27.3012C4.04632 26.7738 3.75 26.0584 3.75 25.3125V17.4244L15 6.17438ZM24.375 4.6875V11.25L20.625 7.5V4.6875C20.625 4.43886 20.7238 4.2004 20.8996 4.02459C21.0754 3.84877 21.3139 3.75 21.5625 3.75H23.4375C23.6861 3.75 23.9246 3.84877 24.1004 4.02459C24.2762 4.2004 24.375 4.43886 24.375 4.6875Z" fill="white"/>
<path fill-rule="evenodd" clip-rule="evenodd" d="M13.6746 2.81216C14.0262 2.46065 14.503 2.26318 15.0002 2.26318C15.4974 2.26318 15.9742 2.46065 16.3258 2.81216L28.789 15.2734C28.965 15.4494 29.0639 15.6882 29.0639 15.9372C29.0639 16.1861 28.965 16.4249 28.789 16.6009C28.6129 16.7769 28.3742 16.8758 28.1252 16.8758C27.8763 16.8758 27.6375 16.7769 27.4615 16.6009L15.0002 4.13778L2.53896 16.6009C2.36292 16.7769 2.12416 16.8758 1.87521 16.8758C1.62625 16.8758 1.3875 16.7769 1.21146 16.6009C1.03542 16.4249 0.936523 16.1861 0.936523 15.9372C0.936523 15.6882 1.03542 15.4494 1.21146 15.2734L13.6746 2.81216Z" fill="white"/>
</svg>
