<svg width="30" height="30" viewBox="0 0 30 30" fill="none" xmlns="http://www.w3.org/2000/svg">
<path d="M9.375 13.125H15V7.5H9.375V13.125Z" fill="white"/>
<path d="M1.875 3.75C1.875 2.75544 2.27009 1.80161 2.97335 1.09835C3.67661 0.395088 4.63044 0 5.625 0L26.25 0C27.2446 0 28.1984 0.395088 28.9016 1.09835C29.6049 1.80161 30 2.75544 30 3.75V24.375C30 25.3696 29.6049 26.3234 28.9016 27.0266C28.1984 27.7299 27.2446 28.125 26.25 28.125H5.625C4.63044 28.125 3.67661 27.7299 2.97335 27.0266C2.27009 26.3234 1.875 25.3696 1.875 24.375V20.625H0.9375C0.68886 20.625 0.450403 20.5262 0.274587 20.3504C0.0987721 20.1746 0 19.9361 0 19.6875V17.8125C0 17.5639 0.0987721 17.3254 0.274587 17.1496C0.450403 16.9738 0.68886 16.875 0.9375 16.875H1.875V15H0.9375C0.68886 15 0.450403 14.9012 0.274587 14.7254C0.0987721 14.5496 0 14.3111 0 14.0625V12.1875C0 11.9389 0.0987721 11.7004 0.274587 11.5246C0.450403 11.3488 0.68886 11.25 0.9375 11.25H1.875V9.375H0.9375C0.68886 9.375 0.450403 9.27623 0.274587 9.10041C0.0987721 8.9246 0 8.68614 0 8.4375V4.6875C0 4.43886 0.0987721 4.2004 0.274587 4.02459C0.450403 3.84877 0.68886 3.75 0.9375 3.75H1.875ZM22.5 4.6875C22.5 4.43886 22.4012 4.2004 22.2254 4.02459C22.0496 3.84877 21.8111 3.75 21.5625 3.75C21.3139 3.75 21.0754 3.84877 20.8996 4.02459C20.7238 4.2004 20.625 4.43886 20.625 4.6875V17.8125C20.625 18.0611 20.7238 18.2996 20.8996 18.4754C21.0754 18.6512 21.3139 18.75 21.5625 18.75C21.8111 18.75 22.0496 18.6512 22.2254 18.4754C22.4012 18.2996 22.5 18.0611 22.5 17.8125V4.6875ZM26.25 4.6875C26.25 4.43886 26.1512 4.2004 25.9754 4.02459C25.7996 3.84877 25.5611 3.75 25.3125 3.75C25.0639 3.75 24.8254 3.84877 24.6496 4.02459C24.4738 4.2004 24.375 4.43886 24.375 4.6875V17.8125C24.375 18.0611 24.4738 18.2996 24.6496 18.4754C24.8254 18.6512 25.0639 18.75 25.3125 18.75C25.5611 18.75 25.7996 18.6512 25.9754 18.4754C26.1512 18.2996 26.25 18.0611 26.25 17.8125V4.6875ZM6.5625 18.75C6.31386 18.75 6.0754 18.8488 5.89959 19.0246C5.72377 19.2004 5.625 19.4389 5.625 19.6875C5.625 19.9361 5.72377 20.1746 5.89959 20.3504C6.0754 20.5262 6.31386 20.625 6.5625 20.625H17.8125C18.0611 20.625 18.2996 20.5262 18.4754 20.3504C18.6512 20.1746 18.75 19.9361 18.75 19.6875C18.75 19.4389 18.6512 19.2004 18.4754 19.0246C18.2996 18.8488 18.0611 18.75 17.8125 18.75H6.5625ZM6.5625 22.5C6.31386 22.5 6.0754 22.5988 5.89959 22.7746C5.72377 22.9504 5.625 23.1889 5.625 23.4375C5.625 23.6861 5.72377 23.9246 5.89959 24.1004C6.0754 24.2762 6.31386 24.375 6.5625 24.375H17.8125C18.0611 24.375 18.2996 24.2762 18.4754 24.1004C18.6512 23.9246 18.75 23.6861 18.75 23.4375C18.75 23.1889 18.6512 22.9504 18.4754 22.7746C18.2996 22.5988 18.0611 22.5 17.8125 22.5H6.5625ZM7.5 7.5H6.5625C6.31386 7.5 6.0754 7.59877 5.89959 7.77459C5.72377 7.9504 5.625 8.18886 5.625 8.4375C5.625 8.68614 5.72377 8.9246 5.89959 9.10041C6.0754 9.27623 6.31386 9.375 6.5625 9.375H7.5V11.25H6.5625C6.31386 11.25 6.0754 11.3488 5.89959 11.5246C5.72377 11.7004 5.625 11.9389 5.625 12.1875C5.625 12.4361 5.72377 12.6746 5.89959 12.8504C6.0754 13.0262 6.31386 13.125 6.5625 13.125H7.5C7.5 13.6223 7.69754 14.0992 8.04918 14.4508C8.40081 14.8025 8.87772 15 9.375 15V15.9375C9.375 16.1861 9.47377 16.4246 9.64959 16.6004C9.8254 16.7762 10.0639 16.875 10.3125 16.875C10.5611 16.875 10.7996 16.7762 10.9754 16.6004C11.1512 16.4246 11.25 16.1861 11.25 15.9375V15H13.125V15.9375C13.125 16.1861 13.2238 16.4246 13.3996 16.6004C13.5754 16.7762 13.8139 16.875 14.0625 16.875C14.3111 16.875 14.5496 16.7762 14.7254 16.6004C14.9012 16.4246 15 16.1861 15 15.9375V15C15.4973 15 15.9742 14.8025 16.3258 14.4508C16.6775 14.0992 16.875 13.6223 16.875 13.125H17.8125C18.0611 13.125 18.2996 13.0262 18.4754 12.8504C18.6512 12.6746 18.75 12.4361 18.75 12.1875C18.75 11.9389 18.6512 11.7004 18.4754 11.5246C18.2996 11.3488 18.0611 11.25 17.8125 11.25H16.875V9.375H17.8125C18.0611 9.375 18.2996 9.27623 18.4754 9.10041C18.6512 8.9246 18.75 8.68614 18.75 8.4375C18.75 8.18886 18.6512 7.9504 18.4754 7.77459C18.2996 7.59877 18.0611 7.5 17.8125 7.5H16.875C16.875 7.00272 16.6775 6.52581 16.3258 6.17417C15.9742 5.82254 15.4973 5.625 15 5.625V4.6875C15 4.43886 14.9012 4.2004 14.7254 4.02459C14.5496 3.84877 14.3111 3.75 14.0625 3.75C13.8139 3.75 13.5754 3.84877 13.3996 4.02459C13.2238 4.2004 13.125 4.43886 13.125 4.6875V5.625H11.25V4.6875C11.25 4.43886 11.1512 4.2004 10.9754 4.02459C10.7996 3.84877 10.5611 3.75 10.3125 3.75C10.0639 3.75 9.8254 3.84877 9.64959 4.02459C9.47377 4.2004 9.375 4.43886 9.375 4.6875V5.625C8.87772 5.625 8.40081 5.82254 8.04918 6.17417C7.69754 6.52581 7.5 7.00272 7.5 7.5ZM20.625 21.5625V23.4375C20.625 23.6861 20.7238 23.9246 20.8996 24.1004C21.0754 24.2762 21.3139 24.375 21.5625 24.375H25.3125C25.5611 24.375 25.7996 24.2762 25.9754 24.1004C26.1512 23.9246 26.25 23.6861 26.25 23.4375V21.5625C26.25 21.3139 26.1512 21.0754 25.9754 20.8996C25.7996 20.7238 25.5611 20.625 25.3125 20.625H21.5625C21.3139 20.625 21.0754 20.7238 20.8996 20.8996C20.7238 21.0754 20.625 21.3139 20.625 21.5625Z" fill="white"/>
</svg>
