<svg width="30" height="30" viewBox="0 0 30 30" fill="none" xmlns="http://www.w3.org/2000/svg">
<path d="M4.6875 25.3125C4.6875 25.0639 4.78627 24.8254 4.96209 24.6496C5.1379 24.4738 5.37636 24.375 5.625 24.375H24.375C24.6236 24.375 24.8621 24.4738 25.0379 24.6496C25.2137 24.8254 25.3125 25.0639 25.3125 25.3125C25.3125 25.5611 25.2137 25.7996 25.0379 25.9754C24.8621 26.1512 24.6236 26.25 24.375 26.25H5.625C5.37636 26.25 5.1379 26.1512 4.96209 25.9754C4.78627 25.7996 4.6875 25.5611 4.6875 25.3125ZM3.75 3.75H26.25C26.25 3.75 30 3.75 30 7.5V18.75C30 18.75 30 22.5 26.25 22.5H3.75C3.75 22.5 0 22.5 0 18.75V7.5C0 7.5 0 3.75 3.75 3.75Z" fill="white"/>
</svg>
