<svg width="90" height="40" viewBox="0 0 90 40" fill="none" xmlns="http://www.w3.org/2000/svg">
<rect x="0.5" y="0.5" width="89" height="39" stroke="#B3B3B3"/>
<path d="M89.5 1L1 39.5M1 1L89.5 39.5" stroke="#B3B3B3"/>
<path d="M17.6136 29V27.0568H18.125C18.8523 27.0568 19.4176 26.8239 19.821 26.358C20.2244 25.892 20.5142 25.1392 20.6903 24.0994C20.8722 23.0597 20.9943 21.6818 21.0568 19.9659L21.3636 11.5455H32V29H29.8864V13.4205H23.375L23.1023 20.375C23.0341 22.2045 22.8665 23.7614 22.5994 25.0455C22.3324 26.3295 21.8636 27.3097 21.1932 27.9858C20.5227 28.6619 19.5455 29 18.2614 29H17.6136ZM41.2685 29.2727C40.0866 29.2727 39.0497 28.9915 38.1577 28.429C37.2713 27.8665 36.5781 27.0795 36.0781 26.0682C35.5838 25.0568 35.3366 23.875 35.3366 22.5227C35.3366 21.1591 35.5838 19.9687 36.0781 18.9517C36.5781 17.9347 37.2713 17.1449 38.1577 16.5824C39.0497 16.0199 40.0866 15.7386 41.2685 15.7386C42.4503 15.7386 43.4844 16.0199 44.3707 16.5824C45.2628 17.1449 45.956 17.9347 46.4503 18.9517C46.9503 19.9687 47.2003 21.1591 47.2003 22.5227C47.2003 23.875 46.9503 25.0568 46.4503 26.0682C45.956 27.0795 45.2628 27.8665 44.3707 28.429C43.4844 28.9915 42.4503 29.2727 41.2685 29.2727ZM41.2685 27.4659C42.1662 27.4659 42.9048 27.2358 43.4844 26.7756C44.0639 26.3153 44.4929 25.7102 44.7713 24.9602C45.0497 24.2102 45.1889 23.3977 45.1889 22.5227C45.1889 21.6477 45.0497 20.8324 44.7713 20.0767C44.4929 19.321 44.0639 18.7102 43.4844 18.2443C42.9048 17.7784 42.1662 17.5455 41.2685 17.5455C40.3707 17.5455 39.6321 17.7784 39.0526 18.2443C38.473 18.7102 38.044 19.321 37.7656 20.0767C37.4872 20.8324 37.348 21.6477 37.348 22.5227C37.348 23.3977 37.4872 24.2102 37.7656 24.9602C38.044 25.7102 38.473 26.3153 39.0526 26.7756C39.6321 27.2358 40.3707 27.4659 41.2685 27.4659ZM58.3501 15.9091V17.7841H52.282V29H50.2706V15.9091H58.3501ZM65.9247 29.2727C64.7429 29.2727 63.706 28.9915 62.8139 28.429C61.9276 27.8665 61.2344 27.0795 60.7344 26.0682C60.2401 25.0568 59.9929 23.875 59.9929 22.5227C59.9929 21.1591 60.2401 19.9687 60.7344 18.9517C61.2344 17.9347 61.9276 17.1449 62.8139 16.5824C63.706 16.0199 64.7429 15.7386 65.9247 15.7386C67.1065 15.7386 68.1406 16.0199 69.027 16.5824C69.919 17.1449 70.6122 17.9347 71.1065 18.9517C71.6065 19.9687 71.8565 21.1591 71.8565 22.5227C71.8565 23.875 71.6065 25.0568 71.1065 26.0682C70.6122 27.0795 69.919 27.8665 69.027 28.429C68.1406 28.9915 67.1065 29.2727 65.9247 29.2727ZM65.9247 27.4659C66.8224 27.4659 67.5611 27.2358 68.1406 26.7756C68.7202 26.3153 69.1491 25.7102 69.4276 24.9602C69.706 24.2102 69.8452 23.3977 69.8452 22.5227C69.8452 21.6477 69.706 20.8324 69.4276 20.0767C69.1491 19.321 68.7202 18.7102 68.1406 18.2443C67.5611 17.7784 66.8224 17.5455 65.9247 17.5455C65.027 17.5455 64.2884 17.7784 63.7088 18.2443C63.1293 18.7102 62.7003 19.321 62.4219 20.0767C62.1435 20.8324 62.0043 21.6477 62.0043 22.5227C62.0043 23.3977 62.1435 24.2102 62.4219 24.9602C62.7003 25.7102 63.1293 26.3153 63.7088 26.7756C64.2884 27.2358 65.027 27.4659 65.9247 27.4659Z" fill="#4B4B4B"/>
</svg>
